<mxfile host="app.diagrams.net" modified="2023-04-21T08:53:18.592Z" agent="Mozilla/5.0 (Windows NT 10.0; Win64; x64) AppleWebKit/537.36 (KHTML, like Gecko) Chrome/112.0.0.0 Safari/537.36" version="21.1.4" etag="Y2cO4sWR2TQaQoqRC6Ne" type="github">
  <diagram name="第 1 页" id="at0eOn8UaZJn9p67vgV4">
    <mxGraphModel>
      <root>
        <mxCell id="0" />
        <mxCell id="1" parent="0" />
      </root>
    </mxGraphModel>
  </diagram>
</mxfile>
